<svg width="20" height="17" viewBox="0 0 20 17" fill="none" xmlns="http://www.w3.org/2000/svg">
                <path d="M19.2054 0.3105C18.8903 0.0217539 18.4423 -0.0744694 18.0364 0.0593249L0.812301 5.7371C0.342892 5.89183 0.0245714 6.31085 0.00134779 6.80451C-0.0218376 7.29822 0.255737 7.74528 0.708502 7.94343L4.96815 9.80714C4.98892 9.90355 6.21174 15.575 6.25333 15.7678C6.3067 16.0154 6.43239 16.236 6.69864 16.3038C6.96795 16.3724 7.15821 16.2252 7.35915 16.0748C7.47099 15.9911 10.5202 13.7079 10.5202 13.7079L14.2156 16.7319C14.4309 16.9081 14.694 17 14.9622 17C15.0899 17 15.2189 16.9791 15.3443 16.9366C15.7332 16.8047 16.0215 16.4873 16.1155 16.0875L19.5576 1.45309C19.6554 1.03701 19.5205 0.599246 19.2054 0.3105ZM7.63451 10.8751C7.6324 10.8801 7.63034 10.8857 7.62839 10.8924L6.91584 13.3819L6.12065 9.69385L11.5886 6.65584L7.76566 10.6531C7.70544 10.7161 7.66114 10.7922 7.63451 10.8751ZM7.86066 14.262L8.1843 13.1313L8.49386 12.0497L9.60305 12.9574L7.86066 14.262ZM18.4377 1.18963L14.9956 15.824C14.9939 15.8313 14.9916 15.8413 14.9748 15.847C14.9581 15.8527 14.95 15.8462 14.9443 15.8415L10.9006 12.5325C10.9004 12.5324 10.9004 12.5323 10.9002 12.5322L9.0267 10.9991L15.0458 4.70543C15.2424 4.49986 15.2593 4.1815 15.0854 3.95634C14.9115 3.73115 14.5993 3.66683 14.3507 3.80503L5.43806 8.75694L1.16969 6.88937C1.15668 6.88371 1.14952 6.88053 1.15056 6.85853C1.15159 6.83661 1.15901 6.83413 1.17248 6.82969L18.3966 1.15195C18.4049 1.14923 18.4143 1.14609 18.4282 1.15872C18.442 1.17142 18.4397 1.18106 18.4377 1.18963Z" fill="white"/>
            </svg>