<svg width="17" height="17" viewBox="0 0 17 17" fill="none" xmlns="http://www.w3.org/2000/svg">
    <g clip-path="url(#clip0_9_195)">
        <path d="M16.4015 9.84095C16.9087 5.57183 16.1578 2.87662 14.8035 1.65758L14.8042 1.65687C12.6183 -0.424921 5.23606 -0.733047 2.62089 1.75037C1.44647 2.96516 1.03281 4.74804 0.987473 6.9552C0.94214 9.16308 0.888306 13.299 4.74235 14.421H4.74589L4.74235 16.1345C4.74235 16.1345 4.71614 16.8287 5.15956 16.9682C5.66672 17.1325 5.89622 16.8102 7.47368 14.9261C10.1115 15.1549 12.1373 14.6307 12.3676 14.5542C12.9002 14.3757 15.9142 13.9769 16.4015 9.84095ZM7.73364 13.7205C7.73364 13.7205 6.0641 15.8023 5.54489 16.3427C5.37489 16.5184 5.1886 16.5021 5.19143 16.1536C5.19143 15.9248 5.20418 13.309 5.20418 13.309C1.93664 12.3725 2.12931 8.8507 2.16472 7.00833C2.20014 5.16525 2.53731 3.65579 3.53181 2.63933C5.8261 0.48812 12.2981 0.969078 13.9471 2.51891C15.9631 4.30604 15.2455 9.35504 15.2498 9.52716C14.8354 12.9796 12.3931 13.1985 11.944 13.3479C11.752 13.4117 9.97056 13.87 7.73364 13.7205Z" fill="white"/>
        <path d="M8.65729 3.04346C8.38458 3.04346 8.38458 3.46846 8.65729 3.472C10.7731 3.48829 12.5156 4.96304 12.5347 7.66817C12.5347 7.95362 12.9526 7.95008 12.9491 7.66462H12.9484C12.9257 4.74983 11.0231 3.05975 8.65729 3.04346Z" fill="white"/>
        <path d="M11.4403 7.22007C11.434 7.50198 11.8512 7.51544 11.8547 7.22998C11.8894 5.62278 10.8985 4.2989 9.03625 4.15936C8.76354 4.13953 8.7352 4.56807 9.00721 4.5879C10.6222 4.71044 11.4729 5.81261 11.4403 7.22007Z" fill="white"/>
        <path d="M10.994 9.04824C10.6441 8.84566 10.2878 8.97174 10.1405 9.17078L9.83233 9.56958C9.67579 9.77216 9.38324 9.74524 9.38324 9.74524C7.24833 9.1807 6.67741 6.94662 6.67741 6.94662C6.67741 6.94662 6.6512 6.64416 6.8467 6.48195L7.23203 6.1632C7.4247 6.0102 7.54653 5.64187 7.35033 5.27991C6.82616 4.33287 6.47412 4.00633 6.29491 3.75558C6.10649 3.5197 5.82316 3.46658 5.52849 3.62595H5.52212C4.90941 3.98437 4.23861 4.65516 4.45324 5.34578C4.81945 6.07395 5.49237 8.39516 7.6372 10.149C8.64516 10.9785 10.2403 11.8285 10.9175 12.0247L10.9239 12.0346C11.5911 12.257 12.24 11.56 12.5863 10.9289V10.9239C12.74 10.6186 12.689 10.3296 12.4645 10.1405C12.0664 9.75233 11.4657 9.32378 10.994 9.04824Z" fill="white"/>
        <path d="M9.32808 5.74052C10.0088 5.78019 10.3389 6.13577 10.3743 6.86606C10.387 7.15152 10.8014 7.13169 10.7887 6.84623C10.7433 5.89281 10.2461 5.36156 9.35075 5.31198C9.07804 5.29568 9.05254 5.72423 9.32808 5.74052Z" fill="white"/>
    </g>
    <defs>
        <clipPath id="clip0_9_195">
            <rect width="17" height="17" fill="white"/>
        </clipPath>
    </defs>
</svg>